<svg width="428" height="926" viewBox="0 0 428 926" fill="none" xmlns="http://www.w3.org/2000/svg">
<rect width="428" height="926" fill="white"/>
<ellipse cx="214" cy="586.5" rx="196" ry="339.5" fill="#013F12"/>
<path d="M411 586C434.5 782.5 322.248 926 214 926C105.752 926 -7.00003 779.5 16.5 586C16.5 432.189 105.752 369 214 369C322.248 369 411 432.189 411 586Z" fill="#012D0D"/>
<path d="M410 680C410 788.248 322.248 926 214 926C105.752 926 18 788.248 18 680C18 571.752 105.752 534 214 534C322.248 534 410 571.752 410 680Z" fill="#001004"/>
</svg>
